<svg xmlns="http://www.w3.org/2000/svg" viewBox="0 0 640 440"><defs><linearGradient id="bg" x1="0" x2="1"><stop stop-color="#dbe9e3"/><stop offset="1" stop-color="#c9ddd4"/></linearGradient><linearGradient id="hair" x1="0" x2="1"><stop stop-color="#4b3027"/><stop offset="1" stop-color="#98634b"/></linearGradient></defs><rect width="640" height="440" fill="url(#bg)"/><ellipse cx="320" cy="260" rx="121" ry="145" fill="#c88869"/><path d="M198 285c-31-139 22-227 121-229 111-1 151 105 123 231-32-7-48-23-64-53-35 28-77 41-126 32-19-3-34-11-49-22-2 19-3 30-5 41z" fill="url(#hair)"/><path d="M194 212c-24 69-15 151 9 208-39-34-56-91-50-162 8-94 63-169 161-182-67 29-103 67-120 136zM445 205c24 73 15 151-9 212 38-35 55-92 49-163-8-92-62-166-159-178 67 27 102 65 119 129z" fill="#33231e" opacity=".64"/><circle cx="277" cy="251" r="7" fill="#3b2620"/><circle cx="370" cy="251" r="7" fill="#3b2620"/><path d="M292 315c19 11 39 11 58 0" fill="none" stroke="#754237" stroke-width="6" stroke-linecap="round"/><text x="26" y="407" font-family="Arial" font-size="16" fill="#54776d" letter-spacing="2">SOFT TEXTURED LOB</text></svg>
